<?xml version="1.0" encoding="UTF-8" standalone="no"?><!DOCTYPE svg PUBLIC "-//W3C//DTD SVG 1.1//EN" "http://www.w3.org/Graphics/SVG/1.1/DTD/svg11.dtd"><svg width="100%" height="100%" viewBox="0 0 511 498" version="1.1" xmlns="http://www.w3.org/2000/svg" xmlns:xlink="http://www.w3.org/1999/xlink" xml:space="preserve" style="fill-rule:evenodd;clip-rule:evenodd;stroke-linejoin:round;stroke-miterlimit:1.41421;"><rect id="Artboard1" x="0" y="0" width="510.985" height="497.619" style="fill:none;"/><g id="Layer-1"><path d="M361.183,255.234c7.133,-16.029 25.921,-23.235 41.946,-16.1c16.03,7.142 23.237,25.917 16.108,41.949c-7.14,16.03 -25.924,23.244 -41.956,16.105c-16.032,-7.137 -23.235,-25.919 -16.098,-41.954" style="fill:#747474;fill-rule:nonzero;"/><path d="M391.582,329.848c5.57,-12.511 20.233,-18.139 32.743,-12.564c12.512,5.574 18.135,20.226 12.571,32.737c-5.576,12.52 -20.233,18.141 -32.748,12.572c-12.509,-5.566 -18.135,-20.231 -12.566,-32.745" style="fill:#747474;fill-rule:nonzero;"/><path d="M388.772,394.76c4.391,-9.866 15.956,-14.308 25.826,-9.91c9.877,4.389 14.314,15.954 9.921,25.827c-4.394,9.882 -15.964,14.318 -25.832,9.921c-9.874,-4.392 -14.314,-15.962 -9.915,-25.838" style="fill:#747474;fill-rule:nonzero;"/><path d="M370.65,437.595c3.157,-7.089 11.461,-10.273 18.543,-7.123c7.09,3.162 10.276,11.463 7.123,18.552c-3.157,7.088 -11.458,10.269 -18.548,7.118c-7.082,-3.159 -10.27,-11.46 -7.118,-18.547" style="fill:#747474;fill-rule:nonzero;"/><path d="M344.806,461.714c2.075,-4.665 7.544,-6.767 12.204,-4.692c4.671,2.08 6.775,7.548 4.694,12.217c-2.079,4.667 -7.545,6.765 -12.215,4.689c-4.664,-2.072 -6.763,-7.543 -4.683,-12.214" style="fill:#747474;fill-rule:nonzero;"/><path d="M152,205.375c-13.436,11.278 -33.483,9.521 -44.757,-3.914c-11.278,-13.449 -9.525,-33.483 3.911,-44.767c13.445,-11.279 33.491,-9.531 44.771,3.916c11.28,13.443 9.52,33.483 -3.925,44.765" style="fill:#747474;fill-rule:nonzero;"/><path d="M157.388,124.986c-10.491,8.805 -26.137,7.433 -34.937,-3.06c-8.801,-10.494 -7.433,-26.132 3.051,-34.936c10.501,-8.805 26.141,-7.434 34.947,3.058c8.805,10.487 7.431,26.133 -3.061,34.938" style="fill:#747474;fill-rule:nonzero;"/><path d="M188.372,67.875c-8.274,6.946 -20.615,5.866 -27.559,-2.41c-6.952,-8.279 -5.873,-20.618 2.405,-27.566c8.281,-6.955 20.624,-5.871 27.567,2.408c6.95,8.276 5.869,20.619 -2.413,27.568" style="fill:#747474;fill-rule:nonzero;"/><path d="M223.434,37.323c-5.942,4.983 -14.801,4.207 -19.787,-1.733c-4.986,-5.946 -4.211,-14.805 1.73,-19.789c5.944,-4.991 14.803,-4.212 19.791,1.73c4.982,5.942 4.206,14.801 -1.734,19.792" style="fill:#747474;fill-rule:nonzero;"/><path d="M257.236,26.973c-3.909,3.283 -9.747,2.774 -13.024,-1.138c-3.288,-3.914 -2.783,-9.748 1.135,-13.034c3.916,-3.286 9.748,-2.773 13.035,1.139c3.282,3.913 2.77,9.744 -1.146,13.033" style="fill:#747474;fill-rule:nonzero;"/><path d="M318.156,341.889c17.023,-4.25 34.271,6.116 38.515,23.14c4.24,17.027 -6.119,34.267 -23.141,38.52c-17.029,4.243 -34.277,-6.117 -38.525,-23.146c-4.244,-17.028 6.123,-34.268 23.151,-38.514" style="fill:#759400;fill-rule:nonzero;"/><path d="M278.074,411.778c13.289,-3.312 26.75,4.778 30.061,18.064c3.313,13.292 -4.775,26.75 -18.06,30.064c-13.297,3.309 -26.751,-4.776 -30.066,-18.066c-3.317,-13.287 4.775,-26.745 18.065,-30.062" style="fill:#759400;fill-rule:nonzero;"/><path d="M225.191,449.526c10.482,-2.612 21.1,3.767 23.714,14.251c2.619,10.487 -3.761,21.104 -14.247,23.721c-10.491,2.617 -21.11,-3.765 -23.721,-14.251c-2.617,-10.485 3.763,-21.107 14.254,-23.721" style="fill:#759400;fill-rule:nonzero;"/><path d="M180.285,461.619c7.522,-1.876 15.147,2.706 17.022,10.229c1.875,7.53 -2.704,15.152 -10.23,17.027c-7.529,1.88 -15.15,-2.7 -17.028,-10.23c-1.872,-7.521 2.707,-15.146 10.236,-17.026" style="fill:#759400;fill-rule:nonzero;"/><path d="M145.365,456.103c4.953,-1.235 9.976,1.777 11.208,6.732c1.24,4.961 -1.776,9.981 -6.733,11.215c-4.962,1.236 -9.978,-1.778 -11.217,-6.738c-1.234,-4.952 1.78,-9.97 6.742,-11.209" style="fill:#759400;fill-rule:nonzero;"/><path d="M228.662,146.356c-17.165,-3.647 -28.121,-20.525 -24.473,-37.685c3.651,-17.164 20.523,-28.122 37.684,-24.477c17.166,3.651 28.129,20.523 24.479,37.69c-3.648,17.165 -20.523,28.117 -37.69,24.472" style="fill:#759400;fill-rule:nonzero;"/><path d="M295.324,101.107c-13.396,-2.847 -21.949,-16.021 -19.1,-29.414c2.849,-13.396 16.019,-21.95 29.411,-19.104c13.403,2.851 21.951,16.02 19.104,29.416c-2.844,13.398 -16.014,21.949 -29.415,19.102" style="fill:#759400;fill-rule:nonzero;"/><path d="M359.403,90.364c-10.569,-2.245 -17.315,-12.635 -15.068,-23.207c2.242,-10.575 12.635,-17.319 23.205,-15.075c10.575,2.249 17.323,12.637 15.072,23.209c-2.243,10.57 -12.633,17.32 -23.209,15.073" style="fill:#759400;fill-rule:nonzero;"/><path d="M405.067,99.176c-7.586,-1.611 -12.43,-9.071 -10.817,-16.658c1.614,-7.587 9.073,-12.431 16.659,-10.817c7.59,1.612 12.433,9.069 10.821,16.658c-1.616,7.585 -9.071,12.429 -16.663,10.817" style="fill:#759400;fill-rule:nonzero;"/><path d="M434.032,119.447c-4.995,-1.063 -8.185,-5.976 -7.122,-10.971c1.061,-4.999 5.971,-8.187 10.969,-7.124c5.001,1.062 8.189,5.971 7.129,10.969c-1.062,4.996 -5.975,8.184 -10.976,7.126" style="fill:#759400;fill-rule:nonzero;"/><path d="M223.383,361.325c13.826,10.805 16.276,30.773 5.473,44.602c-10.804,13.827 -30.773,16.278 -44.599,5.481c-13.829,-10.809 -16.283,-30.779 -5.478,-44.611c10.802,-13.825 30.773,-16.273 44.604,-5.472" style="fill:#747474;fill-rule:nonzero;"/><path d="M143.63,372.776c10.793,8.432 12.705,24.02 4.275,34.808c-8.435,10.794 -24.021,12.707 -34.809,4.277c-10.798,-8.437 -12.71,-24.022 -4.277,-34.814c8.429,-10.794 24.017,-12.703 34.811,-4.271" style="fill:#747474;fill-rule:nonzero;"/><path d="M81.327,354.337c8.515,6.654 10.025,18.95 3.371,27.464c-6.653,8.522 -18.949,10.029 -27.465,3.379c-8.52,-6.656 -10.031,-18.955 -3.374,-27.469c6.65,-8.517 18.949,-10.029 27.468,-3.374" style="fill:#747474;fill-rule:nonzero;"/><path d="M44.148,326.4c6.113,4.778 7.196,13.604 2.421,19.717c-4.776,6.11 -13.604,7.194 -19.716,2.42c-6.116,-4.777 -7.199,-13.606 -2.423,-19.715c4.778,-6.112 13.606,-7.2 19.718,-2.422" style="fill:#747474;fill-rule:nonzero;"/><path d="M26.999,295.486c4.025,3.143 4.738,8.956 1.594,12.981c-3.146,4.029 -8.957,4.741 -12.982,1.595c-4.03,-3.149 -4.743,-8.959 -1.599,-12.986c3.146,-4.024 8.957,-4.736 12.987,-1.59" style="fill:#747474;fill-rule:nonzero;"/><path d="M322.365,170.423c-7.693,-15.767 -1.14,-34.789 14.63,-42.48c15.771,-7.692 34.795,-1.145 42.487,14.625c7.693,15.772 1.142,34.801 -14.63,42.493c-15.77,7.692 -34.794,1.139 -42.487,-14.638" style="fill:#759400;fill-rule:nonzero;"/><path d="M399.066,195.101c-6.005,-12.311 -0.891,-27.159 11.417,-33.161c12.309,-6.005 27.158,-0.892 33.161,11.413c6.005,12.314 0.891,27.165 -11.418,33.166c-12.307,6.003 -27.155,0.89 -33.16,-11.418" style="fill:#759400;fill-rule:nonzero;"/><path d="M446.982,238.983c-4.739,-9.713 -0.704,-21.427 9.007,-26.166c9.716,-4.737 21.428,-0.706 26.167,9.004c4.74,9.72 0.706,21.434 -9.007,26.17c-9.714,4.74 -21.429,0.71 -26.167,-9.008" style="fill:#759400;fill-rule:nonzero;"/><path d="M468.148,280.389c-3.401,-6.971 -0.504,-15.381 6.467,-18.781c6.973,-3.402 15.382,-0.503 18.782,6.468c3.403,6.971 0.508,15.381 -6.467,18.785c-6.972,3.401 -15.381,0.501 -18.782,-6.472" style="fill:#759400;fill-rule:nonzero;"/><path d="M470.011,315.694c-2.242,-4.592 -0.333,-10.125 4.257,-12.367c4.594,-2.24 10.127,-0.334 12.369,4.258c2.241,4.595 0.333,10.133 -4.257,12.371c-4.591,2.238 -10.127,0.332 -12.369,-4.262" style="fill:#759400;fill-rule:nonzero;"/><path d="M149.715,298.614c0,17.544 -14.227,31.771 -31.775,31.771c-17.547,0 -31.773,-14.227 -31.773,-31.771c0,-17.55 14.226,-31.775 31.773,-31.775c17.548,0 31.775,14.225 31.775,31.775" style="fill:#759400;fill-rule:nonzero;"/><path d="M91.593,242.82c0,13.693 -11.106,24.795 -24.799,24.795c-13.695,0 -24.801,-11.102 -24.801,-24.795c0,-13.7 11.106,-24.802 24.801,-24.802c13.693,0 24.799,11.102 24.799,24.802" style="fill:#759400;fill-rule:nonzero;"/><path d="M67.762,182.373c0,10.807 -8.76,19.564 -19.567,19.564c-10.807,0 -19.569,-8.757 -19.569,-19.564c0,-10.813 8.762,-19.57 19.569,-19.57c10.807,0 19.567,8.757 19.567,19.57" style="fill:#759400;fill-rule:nonzero;"/><path d="M66.892,135.875c0,7.755 -6.289,14.044 -14.047,14.044c-7.759,0 -14.047,-6.289 -14.047,-14.044c0,-7.76 6.288,-14.05 14.047,-14.05c7.758,0 14.047,6.29 14.047,14.05" style="fill:#759400;fill-rule:nonzero;"/><path d="M80.693,103.327c0,5.108 -4.141,9.249 -9.25,9.249c-5.109,0 -9.25,-4.141 -9.25,-9.249c0,-5.113 4.141,-9.254 9.25,-9.254c5.109,0 9.25,4.141 9.25,9.254" style="fill:#759400;fill-rule:nonzero;"/></g></svg>