<svg xmlns="http://www.w3.org/2000/svg"><defs><style>.cls-1{fill:none;stroke:#666;stroke-linecap:round;stroke-linejoin:round;stroke-width:2px;opacity:.5}</style><style>.cls-1{opacity:.5}.cls-2{fill:none;stroke:#666;stroke-linecap:round;stroke-linejoin:round;stroke-width:2px}.cls-3{fill:#666}</style><style>.a{fill:#fff}</style><style>.cls-1{opacity:.5}.cls-2{fill:none;stroke:#666;stroke-linecap:round;stroke-linejoin:round;stroke-width:2px}</style><style>.cls-1{fill:none;stroke:#666;stroke-linecap:round;stroke-linejoin:round;stroke-width:2px}</style><style>.cls-1{opacity:.4}.cls-2{fill:none;stroke:#fff;stroke-linecap:round;stroke-linejoin:round;stroke-width:2px}</style><style>.cls-1{fill:none;stroke:#666;stroke-linecap:round;stroke-linejoin:round;stroke-width:2px;opacity:.5}</style></defs><symbol id="facebook" viewBox="1305.805 235.5 10.854 18.098"><path id="Path_4" data-name="Path 4" class="cls-1" d="M9.854 1H7.439a3.985 3.985 0 0 0-4.024 4.024v2.415H1v3.22h2.415V17.1h3.22v-6.441h2.414l.8-3.22H6.634V5.024a.76.76 0 0 1 .8-.8h2.42z" transform="translate(1305.805 235.5)"/></symbol><symbol id="instagram" viewBox="1400.659 235.902 18.098 18.098"><g id="Group_27" data-name="Group 27" class="cls-1" transform="translate(1401.659 236.902)"><path id="Path_10" data-name="Path 10" class="cls-2" d="M5.024 1h8.049A3.985 3.985 0 0 1 17.1 5.024v8.049a3.985 3.985 0 0 1-4.027 4.027H5.024A3.985 3.985 0 0 1 1 13.073V5.024A3.985 3.985 0 0 1 5.024 1z" transform="translate(-1 -1)"/><path id="Path_11" data-name="Path 11" class="cls-2" d="M13.451 9.722a3.21 3.21 0 1 1-6.359.885 3.236 3.236 0 0 1 2.737-3.622 1.962 1.962 0 0 1 .966 0 3.248 3.248 0 0 1 2.656 2.737z" transform="translate(-2.183 -2.156)"/><path id="Path_12" data-name="Path 12" class="cls-3" d="M1.3.5a.8.8 0 1 1-.8.8.8.8 0 0 1 .8-.8z" transform="translate(11.508 2.317)"/></g></symbol><symbol id="logo" viewBox="-2251 1593 240.894 70.48"><path class="a" d="M-2018.843 1620.666l8.737 20.527h-4.688l-1.869-4.573h-8.616l-1.863 4.573h-4.574l8.736-20.527h4.136zm.58 12l-2.7-6.611-2.71 6.611zM-2041.346 1629.457l8.675 11.736h-5.387l-6.321-8.676-2.355 2.442v6.234h-4.485v-20.379h4.485v8.9l8.266-8.9h5.414zM-2054.655 1620.814v4.13h-6.2v16.248h-4.48v-16.248h-6.2v-4.13zM-2080.929 1620.666l8.731 20.527h-4.683l-1.869-4.573h-8.615l-1.863 4.573h-4.573l8.736-20.527h4.136zm.579 12l-2.7-6.611-2.71 6.611zM-2086.763 1614.826h7.665v3.409h-7.665zM-2100.466 1633.915l4.977 7.278h-5.239l-4.366-6.524h-3.524v6.524h-4.485v-20.379h9.32a8.046 8.046 0 0 1 5.94 2.067 6.3 6.3 0 0 1 1.748 4.66v.055a6.37 6.37 0 0 1-1.213 4.032 7 7 0 0 1-3.158 2.287zm-.175-6.086v-.06a2.6 2.6 0 0 0-.928-2.18 4.119 4.119 0 0 0-2.6-.732h-4.453v5.851h4.54a3.736 3.736 0 0 0 2.552-.781 2.667 2.667 0 0 0 .889-2.099zM-2113.097 1614.826h8.113v3.409h-8.113zM-2115.894 1620.814l-7.829 12.254v8.124h-4.485v-8.037l-7.829-12.341h5.239l4.863 8.178 4.944-8.178zM-2137.087 1620.814l-8.239 20.52h-3.962l-8.239-20.52h4.949l5.327 14.352 5.327-14.352zM-2160.034 1637.258v3.934h-16.969v-3.411l11.205-13.041h-10.855v-3.926h16.62v3.4l-11.206 13.044zM-2214.624 1640.626c-.055.011-.11.016-.159.022-.021 0-.044.005-.065.005h-.011a1.147 1.147 0 0 1-.191-.017c-.016-.006-.033-.006-.049-.011a.946.946 0 0 1-.2-.055c-.005-.005-.016-.005-.028-.011a1.413 1.413 0 0 1-.169-.087.137.137 0 0 1-.038-.023 1.844 1.844 0 0 1-.168-.123l-.033-.033a1.14 1.14 0 0 1-.147-.175.283.283 0 0 1-.038-.071 1.075 1.075 0 0 1-.087-.147 45.858 45.858 0 0 0-.077-.24.628.628 0 0 1-.016-.109 1.09 1.09 0 0 1-.011-.131.68.68 0 0 1 .005-.1c.005-.044.005-.093.011-.137s.017-.065.028-.1a.683.683 0 0 1 .039-.125.4.4 0 0 1 .043-.093c.021-.044.038-.087.06-.132l.066-.083a.94.94 0 0 1 .086-.109.645.645 0 0 1 .094-.082c.032-.027.06-.06.1-.087l.006-.005 13.483-9.54a1.726 1.726 0 0 0 .415-2.415 1.739 1.739 0 0 0-2.42-.41l-9.818 6.955a.465.465 0 0 1-.071.038l-3.6 2.552a1.26 1.26 0 1 1-1.453-2.06l11.035-7.816a1.748 1.748 0 0 0 .415-2.421 1.739 1.739 0 0 0-2.42-.41l-16.789 11.895a1.3 1.3 0 0 1-.349.185 1.259 1.259 0 0 1-1.52-1.77l3.59-7.556a1.893 1.893 0 0 0-3.42-1.623c-.005.017-.011.027-.016.044-.022.032-1.83 3.524-3.568 7.507a34.388 34.388 0 0 0-3.223 12.161 1.267 1.267 0 0 1-.989 1.093 1.459 1.459 0 0 1-.262.027 1.262 1.262 0 0 1-1.088-.617c-.011-.028-.032-.055-.043-.083a30.693 30.693 0 0 1-3.202-13.937v-1.95a23.753 23.753 0 0 1-3.5-2.6c-3.1-.5-5.332-2.081-6.01-4.278a4.3 4.3 0 0 1 1.283-4.529c2.131-1.9 6.076-4.185 13.1-7.588a3.63 3.63 0 0 1 .454-3.562c.158-.208 3.845-4.978 12.582-7.949a7.33 7.33 0 0 1 1.41-2.355c3.082-3.541 10.4-2.12 16.691 3.251a25.853 25.853 0 0 1 3.884 4.108h14.254a1.258 1.258 0 0 1 1.257 1.262v26.189c0 .29-.005.579-.011.869 0 .158.011.317.011.481a1.354 1.354 0 0 1-.039.3 30.234 30.234 0 0 1-8.917 20.248 45.787 45.787 0 0 1-18.357 10.948 1.2 1.2 0 0 1-.393.06 1.164 1.164 0 0 1-.388-.06 50.3 50.3 0 0 1-10.746-4.933.417.417 0 0 1-.055-.032 1.278 1.278 0 0 1-.53-1.273 1.265 1.265 0 0 1 .951-1 29.551 29.551 0 0 0 12.162-5.409l7.277-5.157a1.719 1.719 0 0 0 .7-1.126 1.692 1.692 0 0 0-.289-1.289 1.733 1.733 0 0 0-2.42-.415l-4.153 2.928a1.5 1.5 0 0 1-.2.115c-.022.006-.044.016-.066.022a.727.727 0 0 1-.148.049l-.076.016a1.624 1.624 0 0 1-.164.022.159.159 0 0 0-.054.006h-.011c-.066 0-.131-.011-.2-.016-.016-.006-.027-.006-.044-.011a.927.927 0 0 1-.207-.054c-.005 0-.012-.006-.017-.011a.907.907 0 0 1-.18-.087.244.244 0 0 1-.038-.022 3.192 3.192 0 0 1-.169-.125l-.033-.034a2.106 2.106 0 0 1-.147-.169V1645a1.238 1.238 0 0 1-.224-.645c0-.016-.005-.038-.005-.055a.1.1 0 0 1 .005-.038 1.2 1.2 0 0 1 .077-.437 1.253 1.253 0 0 1 .453-.579l9.84-6.939a1.737 1.737 0 0 0 .41-2.415 1.716 1.716 0 0 0-1.126-.7 1.69 1.69 0 0 0-1.289.29l-9.841 6.944h-.006a1.116 1.116 0 0 1-.2.109.377.377 0 0 1-.066.028.777.777 0 0 1-.147.049zm26.622-19.557v-15.843h-11.374a16.539 16.539 0 0 1 .787 1.678 10.369 10.369 0 0 1 .825 4.135 27.242 27.242 0 0 1 9.762 10.03zm-.012 9.9c-.213-9.036-5.676-14.167-10.4-17.33a5.476 5.476 0 0 1-.65.972 7.292 7.292 0 0 1-6.36 2.12c-2.863-.29-8.392-2.093-13.238-10.895a1.261 1.261 0 0 1 2.213-1.21c4.453 8.08 9.375 9.408 11.282 9.6a4.823 4.823 0 0 0 4.191-1.246c.907-1.065.923-2.939.049-5.141a15.67 15.67 0 0 0-1.738-3.141c-.005-.011-.016-.022-.026-.038a22.619 22.619 0 0 0-3.819-4.134c-5.513-4.7-11.37-5.617-13.178-3.5-.039.044-.044.055-.082.093a6.015 6.015 0 0 0-1.055 2.016 1.257 1.257 0 0 1-.8.781c-8.4 2.716-11.888 7.217-11.921 7.261-.284.377-.284.53.044 1.65.065.235.136.481.207.749a1.265 1.265 0 0 1-.672 1.453c-6.595 3.169-10.621 5.4-12.823 7.124a19.516 19.516 0 0 0 4.464 5.912 17.7 17.7 0 0 0 8.911 4.283c1.349-2.945 2.54-5.245 2.66-5.48a4.41 4.41 0 0 1 7.953 3.806l-1.536 3.229 12.878-9.119a4.248 4.248 0 0 1 6.644 2.732 4.252 4.252 0 0 1 5.912 4.6 4.254 4.254 0 0 1-1.732 2.758l-.5.351a4.244 4.244 0 0 1 .312 7.135l-2.52 1.775a4.248 4.248 0 0 1 .285 7.125l-7.277 5.158a31.745 31.745 0 0 1-10 5.032 48.945 48.945 0 0 0 7.152 3.037c7.776-2.611 24.708-10.483 25.172-29.518zm-49.1 7.8a35.057 35.057 0 0 1 2.638-8.048 18.4 18.4 0 0 1-3.89-1.2v.65a29.115 29.115 0 0 0 1.249 8.594z"/><path class="a" d="M-2225.579 1610.886a1.26 1.26 0 0 1-.486 1.2l-1.578 1.186a1.26 1.26 0 0 1-1.776-1.748l-1.055-.361a1.259 1.259 0 0 1 .814-2.382l3.245 1.109a1.244 1.244 0 0 1 .836.996z"/><path class="a" d="M-2185.072 1603.975a1.672 1.672 0 0 0-1.667-1.672h-14.05a26.249 26.249 0 0 0-3.822-4.01c-3.884-3.314-8.389-5.288-12.051-5.288a6.646 6.646 0 0 0-5.2 2.067 7.562 7.562 0 0 0-1.424 2.313c-8.719 3.014-12.446 7.825-12.6 8.031a3.837 3.837 0 0 0-.61 3.588c-6.879 3.346-10.742 5.6-12.885 7.5a4.7 4.7 0 0 0-1.4 4.957c.71 2.3 3.029 3.992 6.217 4.542a24.392 24.392 0 0 0 3.271 2.445v1.721a31.067 31.067 0 0 0 3.236 14.091.316.316 0 0 0 .042.078l.029.06a1.679 1.679 0 0 0 1.44.818 1.893 1.893 0 0 0 .349-.037 1.682 1.682 0 0 0 1.309-1.448 34.054 34.054 0 0 1 3.184-12.046c1.763-4.042 3.533-7.438 3.531-7.438l.048-.1a1.522 1.522 0 0 1 1.978-.7 1.484 1.484 0 0 1 .7 1.972l-3.584 7.544a1.656 1.656 0 0 0-.006 1.516 1.658 1.658 0 0 0 2.476.591l16.79-11.896a1.366 1.366 0 0 1 1.85.312 1.338 1.338 0 0 1-.317 1.849l-11.043 7.807a1.68 1.68 0 0 0-.4 2.332 1.723 1.723 0 0 0 2.329.4l3.571-2.53a.566.566 0 0 0 .1-.059l9.817-6.953a1.271 1.271 0 0 1 .992-.227 1.322 1.322 0 0 1 1.085 1.523 1.336 1.336 0 0 1-.543.858l-13.493 9.541a1.678 1.678 0 0 0-.139.12.722.722 0 0 0-.106.095 1.161 1.161 0 0 0-.116.143l-.063.079-.087.17a.637.637 0 0 0-.071.144 1.281 1.281 0 0 0-.066.208 1.155 1.155 0 0 0-.032.139c0 .03-.006.062-.008.094l-.012.086a.636.636 0 0 0 0 .138c0 .052.007.107.016.181a.556.556 0 0 0 .021.126 1.517 1.517 0 0 0 .058.187.7.7 0 0 0 .046.133 1.33 1.33 0 0 0 .1.172.553.553 0 0 0 .06.1 1.627 1.627 0 0 0 .205.244l.059.055c.052.042.1.084.161.122l.095.06a1.535 1.535 0 0 0 .2.1l.057.024a1.153 1.153 0 0 0 .268.072l.061.015a1.536 1.536 0 0 0 .271.023l.14-.011a2.05 2.05 0 0 0 .162-.024l.088-.017a1.182 1.182 0 0 0 .2-.064.414.414 0 0 0 .08-.034 1.367 1.367 0 0 0 .156-.077l9.972-7.02a1.251 1.251 0 0 1 .984-.219 1.3 1.3 0 0 1 .858.537 1.327 1.327 0 0 1-.311 1.843l-9.836 6.934a1.653 1.653 0 0 0-.6.768 1.551 1.551 0 0 0-.1.512l-.007.111a.614.614 0 0 0 .007.084 1.663 1.663 0 0 0 .223.737l.078.124a1.751 1.751 0 0 0 .142.167l.114.114c.061.05.13.1.2.146l.057.034a1.412 1.412 0 0 0 .167.088l.072.069h.1a.856.856 0 0 0 .179.041l.164.029a1.628 1.628 0 0 0 .185.011l.087-.007h.008a1.972 1.972 0 0 0 .2-.028l.082-.018a1.137 1.137 0 0 0 .2-.064l.03-.011.064-.024a1.909 1.909 0 0 0 .268-.152l4.15-2.931a1.333 1.333 0 0 1 .989-.225 1.308 1.308 0 0 1 .86.543 1.286 1.286 0 0 1 .219.984 1.308 1.308 0 0 1-.536.858l-7.278 5.157a29.2 29.2 0 0 1-12.018 5.345 1.677 1.677 0 0 0-1.26 1.327 1.7 1.7 0 0 0 .716 1.692l.057.034a50.717 50.717 0 0 0 10.826 4.971 1.569 1.569 0 0 0 .523.083 1.592 1.592 0 0 0 .52-.08 46.2 46.2 0 0 0 18.523-11.052 30.645 30.645 0 0 0 9.031-20.481 1.711 1.711 0 0 0 .041-.354c0-.087 0-.173-.006-.259s-.005-.148-.005-.213c.006-.292.011-.585.011-.877v-26.183zm-.82 26.191c0 .287-.005.574-.011.869 0 .083 0 .166.006.251s.005.152.005.23a.936.936 0 0 1-.029.212l-.009.069a29.848 29.848 0 0 1-8.8 19.98 45.4 45.4 0 0 1-18.193 10.849.878.878 0 0 1-.52 0 50.036 50.036 0 0 1-10.7-4.921.868.868 0 0 1-.361-.86.855.855 0 0 1 .641-.676 29.918 29.918 0 0 0 12.306-5.474l7.278-5.158a2.122 2.122 0 0 0 .87-1.387 2.091 2.091 0 0 0-.357-1.6 2.116 2.116 0 0 0-1.394-.879 2.185 2.185 0 0 0-.362-.031 2.124 2.124 0 0 0-1.236.394l-4.144 2.931a1.078 1.078 0 0 1-.133.078l-.07.024a.383.383 0 0 1-.067.023l.086.4-.157-.386c-.041.009-.081.012-.083.014a.673.673 0 0 0-.087 0l-.064-.006-.093-.015-.056-.011-.1-.038a.806.806 0 0 1-.114-.057 1.552 1.552 0 0 1-.132-.1l-.041-.045-.044-.049-.034-.046a.818.818 0 0 1-.147-.406v-.093a.793.793 0 0 1 .049-.289.848.848 0 0 1 .308-.392l9.841-6.94a2.149 2.149 0 0 0 .506-2.986 2.151 2.151 0 0 0-2.985-.513l-9.744 6.88-.1.07a1.2 1.2 0 0 1-.14.08l-.061.021a.324.324 0 0 1-.061.022l-.073.016c-.034.007-.069.01-.081.014a.523.523 0 0 0-.077.006 1.078 1.078 0 0 1-.115-.008l-.057-.014-.035-.007-.112-.036a.912.912 0 0 1-.113-.06l-.035-.011a1.067 1.067 0 0 1-.132-.1.952.952 0 0 1-.094-.106l-.04-.077a.614.614 0 0 1-.054-.089l-.024-.081a.9.9 0 0 1-.03-.087l-.406.054.4-.117a.76.76 0 0 1-.005-.135 1.076 1.076 0 0 0 .007-.112l-.4-.089.423.007a.455.455 0 0 1 .015-.056l.127-.234a.59.59 0 0 1 .057-.072l-.236-.336.289.293 13.562-9.613a2.135 2.135 0 0 0 .511-2.986 2.149 2.149 0 0 0-2.991-.507l-13.479 9.543a.887.887 0 0 1-1.189-.2.859.859 0 0 1 .207-1.189l11.038-7.811a2.156 2.156 0 0 0 .511-2.993 2.15 2.15 0 0 0-2.991-.506l-16.8 11.9a.882.882 0 0 1-.232.124.866.866 0 0 1-1.03-.423.851.851 0 0 1 .009-.783l3.589-7.556a2.3 2.3 0 0 0-2.075-3.287 2.319 2.319 0 0 0-2.084 1.312l-.025.063c-.293.547-2.008 3.933-3.565 7.5a34.7 34.7 0 0 0-3.245 12.279.852.852 0 0 1-1.57.358 2.249 2.249 0 0 0-.04-.073 30.3 30.3 0 0 1-3.163-13.753v-2.18l-.2-.119a23.491 23.491 0 0 1-3.437-2.557l-.09-.08-.118-.019c-2.935-.476-5.059-1.969-5.684-3.994a3.9 3.9 0 0 1 1.164-4.1c2.116-1.882 6-4.133 13-7.526l.308-.149-.093-.33a3.222 3.222 0 0 1 .386-3.2c.15-.2 3.777-4.88 12.387-7.81l.177-.06.071-.173a6.951 6.951 0 0 1 1.339-2.24 5.867 5.867 0 0 1 4.6-1.8c3.472 0 7.779 1.906 11.518 5.1a25.311 25.311 0 0 1 3.827 4.031l.123.164h14.458a.851.851 0 0 1 .847.853v26.188z"/><path class="a" d="M-2238.206 1629.14l-.572-.247v1.27a29.569 29.569 0 0 0 1.27 8.72l.482 1.564.312-1.607a34.592 34.592 0 0 1 2.612-7.963l.205-.471-.506-.095a17.894 17.894 0 0 1-3.803-1.171zm1.044 7.911a29.348 29.348 0 0 1-.8-6.885v-.037a18.74 18.74 0 0 0 2.9.89 36.19 36.19 0 0 0-2.1 6.032z"/><path class="a" d="M-2198.18 1613.299l-.379-.254-.212.4a5.081 5.081 0 0 1-.6.9 6.935 6.935 0 0 1-6.007 1.978c-2.784-.282-8.164-2.044-12.92-10.684a.856.856 0 0 1 .334-1.153.87.87 0 0 1 1.155.335c4.551 8.259 9.629 9.611 11.6 9.809a5.311 5.311 0 0 0 4.545-1.388c1.007-1.184 1.051-3.21.117-5.559a16.042 16.042 0 0 0-1.782-3.225l-.026-.039a22.868 22.868 0 0 0-3.888-4.211c-3.431-2.928-7.328-4.676-10.423-4.676a4.222 4.222 0 0 0-3.328 1.22l-.073.083a6.358 6.358 0 0 0-1.142 2.159.843.843 0 0 1-.543.528c-8.535 2.758-12.087 7.358-12.123 7.4-.421.559-.346.9-.023 2.007l.052.187c.05.176.1.36.152.551a.859.859 0 0 1-.452.983c-6.685 3.212-10.663 5.424-12.9 7.171l-.247.193.122.289a19.605 19.605 0 0 0 4.574 6.063 18.37 18.37 0 0 0 9.117 4.378l.3.045.129-.273a140.92 140.92 0 0 1 2.613-5.386l.044-.087a4.023 4.023 0 0 1 3.608-2.261 3.961 3.961 0 0 1 1.715.389 4 4 0 0 1 1.893 5.327l-2.21 4.646 14.163-10.028a3.848 3.848 0 0 1 5.356.913 3.9 3.9 0 0 1 .647 1.555l.092.517.479-.215a3.841 3.841 0 0 1 5.339 4.158 3.847 3.847 0 0 1-1.562 2.492l-1.029.716.553.323a3.911 3.911 0 0 1 1.194 1.09 3.85 3.85 0 0 1-.911 5.356l-3.037 2.145.546.322a3.836 3.836 0 0 1 .256 6.437l-7.277 5.158a31.011 31.011 0 0 1-9.872 4.973l-.974.285.9.471a49.506 49.506 0 0 0 7.212 3.063l.131.043.13-.043c7.5-2.517 24.981-10.467 25.455-29.917-.175-7.225-3.636-13.002-10.583-17.659zm-15.007 46.758a49.071 49.071 0 0 1-6.067-2.512 32.893 32.893 0 0 0 9.15-4.791l7.277-5.158a4.656 4.656 0 0 0 .2-7.464l2.036-1.436a4.671 4.671 0 0 0 1.107-6.5 4.76 4.76 0 0 0-.934-.973l.019-.013a4.663 4.663 0 0 0-4.126-8.243 4.648 4.648 0 0 0-4.484-3.371 4.627 4.627 0 0 0-2.689.856l-11.6 8.211.862-1.811a4.826 4.826 0 0 0-2.281-6.419 4.772 4.772 0 0 0-2.067-.468 4.841 4.841 0 0 0-4.342 2.717l-.039.076a140.459 140.459 0 0 0-2.5 5.136 17.4 17.4 0 0 1-8.382-4.122 19.952 19.952 0 0 1-4.246-5.49c2.215-1.663 6.2-3.86 12.5-6.885a1.684 1.684 0 0 0 .889-1.926c-.053-.2-.106-.388-.157-.568l-.053-.19c-.3-1.033-.28-1.062-.111-1.287.034-.044 3.5-4.461 11.72-7.119a1.677 1.677 0 0 0 1.066-1.036 5.675 5.675 0 0 1 .957-1.861 1.541 1.541 0 0 0 .1-.116 3.5 3.5 0 0 1 2.709-.937c2.243 0 6.021 1.177 9.891 4.48a22.175 22.175 0 0 1 3.757 4.068l.02.029a15.252 15.252 0 0 1 1.692 3.057c.817 2.057.824 3.779.02 4.724a4.123 4.123 0 0 1-3.124 1.142 7.009 7.009 0 0 1-.708-.041c-1.843-.185-6.6-1.471-10.964-9.389a1.669 1.669 0 1 0-2.925 1.608c4.938 8.968 10.613 10.806 13.556 11.1a10.245 10.245 0 0 0 1.037.054 7.361 7.361 0 0 0 5.678-2.318 5.834 5.834 0 0 0 .471-.649c6.468 4.453 9.691 9.937 9.852 16.732-.46 18.808-17.366 26.594-24.767 29.103z"/><path class="a" d="M-2199.735 1605.426a16.261 16.261 0 0 1 .767 1.635 9.927 9.927 0 0 1 .8 3.971l-.007.233.2.125a27 27 0 0 1 9.62 9.871l.771 1.462v-17.9h-12.48zm11.326.215v13.892a28.313 28.313 0 0 0-8.94-8.712 10.943 10.943 0 0 0-.858-4.066 15.334 15.334 0 0 0-.5-1.115zM-2226.278 1609.501l-3.25-1.106a1.665 1.665 0 0 0-2.116 1.037 1.673 1.673 0 0 0 1.037 2.12l.614.21a1.67 1.67 0 0 0 2.595 1.839l1.578-1.185a1.664 1.664 0 0 0 .645-1.592 1.644 1.644 0 0 0-1.103-1.323zm-.028 2.256l-1.577 1.183a.867.867 0 0 1-1.194-.174.845.845 0 0 1-.008-1l.331-.45-1.583-.541a.849.849 0 0 1 .275-1.652.863.863 0 0 1 .274.046l3.249 1.11a.832.832 0 0 1 .56.668.849.849 0 0 1-.331.813z"/></symbol><symbol id="mail" viewBox="1450.902 237.512 18.098 14.878"><g id="Group_23" data-name="Group 23" class="cls-1" transform="translate(1451.902 238.512)"><path id="Path_5" data-name="Path 5" class="cls-2" d="M2.61 1h12.878A1.614 1.614 0 0 1 17.1 2.61v9.659a1.614 1.614 0 0 1-1.61 1.61H2.61A1.614 1.614 0 0 1 1 12.268V2.61A1.614 1.614 0 0 1 2.61 1z" transform="translate(-1 -1)"/><path id="Path_6" data-name="Path 6" class="cls-2" d="M17.1 3L9.049 8.634 1 3" transform="translate(-1 -1.39)"/></g></symbol><symbol id="search" viewBox="1517 234 20.414 20.414"><g id="Group_25" data-name="Group 25" transform="translate(1517 234)"><circle id="Ellipse_3" data-name="Ellipse 3" class="cls-1" cx="7.5" cy="7.5" r="7.5" transform="translate(1 1)"/><path id="Line_2" data-name="Line 2" class="cls-1" transform="translate(13.8 13.8)" d="M5.2 5.2L0 0"/></g></symbol><symbol id="share" viewBox="1491 334 20 22"><g id="Group_30" data-name="Group 30" class="cls-1" transform="translate(1491 334)"><circle id="Ellipse_4" data-name="Ellipse 4" class="cls-2" cx="3" cy="3" r="3" transform="translate(13 1)"/><circle id="Ellipse_5" data-name="Ellipse 5" class="cls-2" cx="3" cy="3" r="3" transform="translate(1 8)"/><circle id="Ellipse_6" data-name="Ellipse 6" class="cls-2" cx="3" cy="3" r="3" transform="translate(13 15)"/><path id="Line_3" data-name="Line 3" class="cls-2" transform="translate(6.6 12.5)" d="M0 0l6.8 4"/><path id="Line_4" data-name="Line 4" class="cls-2" transform="translate(6.6 5.5)" d="M6.8 0L0 4"/></g></symbol><symbol id="twitter" viewBox="1348.805 236.303 19.707 16.588"><g id="Symbol_6_1" data-name="Symbol 6 &#x2013; 1" transform="translate(-9)"><path id="Path_7" data-name="Path 7" class="cls-1" d="M18.707.988a7.941 7.941 0 0 1-2.5 1.208 3.509 3.509 0 0 0-5.071-.322 3.426 3.426 0 0 0-1.282 2.738v.805A8.6 8.6 0 0 1 2.61 1.794S-.61 9.04 6.634 12.261A9.393 9.393 0 0 1 1 13.872c7.244 4.026 16.1 0 16.1-9.26a1.57 1.57 0 0 0-.08-.644 6.148 6.148 0 0 0 1.687-2.98z" transform="translate(1357.805 236.364)"/></g></symbol></svg>