<svg xmlns="http://www.w3.org/2000/svg" viewBox="1400.659 235.902 18.098 18.098">
  <defs>
    <style>
      .cls-1 {
        opacity: 0.5;
      }

      .cls-2 {
        fill: none;
        stroke: #666;
        stroke-linecap: round;
        stroke-linejoin: round;
        stroke-width: 2px;
      }

      .cls-3 {
        fill: #666;
      }
    </style>
  </defs>
  <g id="Group_27" data-name="Group 27" class="cls-1" transform="translate(1401.659 236.902)">
    <path id="Path_10" data-name="Path 10" class="cls-2" d="M5.024,1h8.049A3.985,3.985,0,0,1,17.1,5.024v8.049A3.985,3.985,0,0,1,13.073,17.1H5.024A3.985,3.985,0,0,1,1,13.073V5.024A3.985,3.985,0,0,1,5.024,1Z" transform="translate(-1 -1)"/>
    <path id="Path_11" data-name="Path 11" class="cls-2" d="M13.451,9.722a3.21,3.21,0,1,1-6.359.885A3.236,3.236,0,0,1,9.829,6.985a1.962,1.962,0,0,1,.966,0A3.248,3.248,0,0,1,13.451,9.722Z" transform="translate(-2.183 -2.156)"/>
    <path id="Path_12" data-name="Path 12" class="cls-3" d="M1.3.5a.8.8,0,1,1-.8.8A.8.8,0,0,1,1.3.5Z" transform="translate(11.508 2.317)"/>
  </g>
</svg>
