<svg xmlns="http://www.w3.org/2000/svg" viewBox="-2251 1593 240.894 70.48"><defs><style>.a{fill:#fff;}</style></defs><g transform="translate(-4498 -2929.591)"><path class="a" d="M637.615,96.54l8.737,20.527h-4.688l-1.869-4.573h-8.616l-1.863,4.573h-4.574l8.736-20.527h4.136Zm.58,12-2.7-6.611-2.71,6.611Z" transform="translate(1841.542 4453.717)"/><path class="a" d="M582.866,105.576l8.675,11.736h-5.387l-6.321-8.676-2.355,2.442v6.234h-4.485V96.933h4.485v8.9l8.266-8.9h5.414Z" transform="translate(1873.788 4453.472)"/><path class="a" d="M535.965,96.933v4.13h-6.2v16.248h-4.48V101.063h-6.2v-4.13Z" transform="translate(1907.38 4453.472)"/><path class="a" d="M472.884,96.54l8.731,20.527h-4.683l-1.869-4.573h-8.615l-1.863,4.573h-4.573l8.736-20.527h4.136Zm.579,12-2.7-6.611-2.71,6.611Z" transform="translate(1944.187 4453.717)"/><rect class="a" width="7.665" height="3.409" transform="translate(2411.237 4544.417)"/><path class="a" d="M421.437,110.034l4.977,7.278h-5.239l-4.366-6.524h-3.524v6.524H408.8V96.933h9.32A8.046,8.046,0,0,1,424.06,99a6.3,6.3,0,0,1,1.748,4.66v.055a6.37,6.37,0,0,1-1.213,4.032A7,7,0,0,1,421.437,110.034Zm-.175-6.086v-.06a2.6,2.6,0,0,0-.928-2.18,4.119,4.119,0,0,0-2.6-.732h-4.453v5.851h4.54a3.736,3.736,0,0,0,2.552-.781A2.667,2.667,0,0,0,421.262,103.947Z" transform="translate(1976.097 4453.472)"/><rect class="a" width="8.113" height="3.409" transform="translate(2384.903 4544.417)"/><path class="a" d="M368.09,96.933l-7.829,12.254v8.124h-4.485v-8.037l-7.829-12.341h5.239l4.863,8.178,4.944-8.178Z" transform="translate(2014.016 4453.472)"/><path class="a" d="M311.373,96.933l-8.239,20.52h-3.962l-8.239-20.52h4.949l5.327,14.352,5.327-14.352Z" transform="translate(2049.54 4453.472)"/><path class="a" d="M256.225,113.377v3.934H239.256V113.9l11.205-13.041H239.606V96.933h16.62v3.4L245.02,113.377Z" transform="translate(2081.741 4453.472)"/><path class="a" d="M79.978,91.3c-.055.011-.11.016-.159.022-.021,0-.044.005-.065.005h-.011a1.147,1.147,0,0,1-.191-.017c-.016-.006-.033-.006-.049-.011a.946.946,0,0,1-.2-.055c-.005-.005-.016-.005-.028-.011a1.413,1.413,0,0,1-.169-.087.137.137,0,0,1-.038-.023A1.844,1.844,0,0,1,78.9,91l-.033-.033a1.14,1.14,0,0,1-.147-.175.283.283,0,0,1-.038-.071,1.075,1.075,0,0,1-.087-.147,45.858,45.858,0,0,0-.077-.24.628.628,0,0,1-.016-.109,1.09,1.09,0,0,1-.011-.131.68.68,0,0,1,.005-.1c.005-.044.005-.093.011-.137s.017-.065.028-.1a.683.683,0,0,1,.039-.125.4.4,0,0,1,.043-.093c.021-.044.038-.087.06-.132l.066-.083a.94.94,0,0,1,.086-.109.645.645,0,0,1,.094-.082c.032-.027.06-.06.1-.087l.006-.005,13.483-9.54a1.726,1.726,0,0,0,.415-2.415,1.739,1.739,0,0,0-2.42-.41l-9.818,6.955a.465.465,0,0,1-.071.038l-3.6,2.552a1.26,1.26,0,1,1-1.453-2.06L86.6,76.345a1.748,1.748,0,0,0,.415-2.421,1.739,1.739,0,0,0-2.42-.41L67.806,85.409a1.3,1.3,0,0,1-.349.185,1.259,1.259,0,0,1-1.52-1.77l3.59-7.556a1.893,1.893,0,0,0-3.42-1.623c-.005.017-.011.027-.016.044-.022.032-1.83,3.524-3.568,7.507A34.388,34.388,0,0,0,59.3,94.357a1.267,1.267,0,0,1-.989,1.093,1.459,1.459,0,0,1-.262.027,1.262,1.262,0,0,1-1.088-.617c-.011-.028-.032-.055-.043-.083A30.693,30.693,0,0,1,53.716,80.84V78.89a23.753,23.753,0,0,1-3.5-2.6c-3.1-.5-5.332-2.081-6.01-4.278a4.3,4.3,0,0,1,1.283-4.529c2.131-1.9,6.076-4.185,13.1-7.588a3.63,3.63,0,0,1,.454-3.562c.158-.208,3.845-4.978,12.582-7.949a7.33,7.33,0,0,1,1.41-2.355c3.082-3.541,10.4-2.12,16.691,3.251a25.853,25.853,0,0,1,3.884,4.108h14.254a1.258,1.258,0,0,1,1.257,1.262V80.839c0,.29-.005.579-.011.869,0,.158.011.317.011.481a1.354,1.354,0,0,1-.039.3,30.234,30.234,0,0,1-8.917,20.248,45.787,45.787,0,0,1-18.357,10.948,1.2,1.2,0,0,1-.393.06,1.164,1.164,0,0,1-.388-.06,50.3,50.3,0,0,1-10.746-4.933.417.417,0,0,1-.055-.032,1.278,1.278,0,0,1-.53-1.273,1.265,1.265,0,0,1,.951-1,29.551,29.551,0,0,0,12.162-5.409l7.277-5.157a1.719,1.719,0,0,0,.7-1.126,1.692,1.692,0,0,0-.289-1.289,1.733,1.733,0,0,0-2.42-.415l-4.153,2.928a1.5,1.5,0,0,1-.2.115c-.022.006-.044.016-.066.022a.727.727,0,0,1-.148.049l-.076.016a1.624,1.624,0,0,1-.164.022.159.159,0,0,0-.054.006h-.011c-.066,0-.131-.011-.2-.016-.016-.006-.027-.006-.044-.011a.927.927,0,0,1-.207-.054c-.005,0-.012-.006-.017-.011a.907.907,0,0,1-.18-.087.244.244,0,0,1-.038-.022c-.055-.038-.115-.082-.169-.125l-.033-.034a2.106,2.106,0,0,1-.147-.169v-.006a1.238,1.238,0,0,1-.224-.645c0-.016-.005-.038-.005-.055a.1.1,0,0,1,.005-.038,1.2,1.2,0,0,1,.077-.437,1.253,1.253,0,0,1,.453-.579l9.84-6.939a1.737,1.737,0,0,0,.41-2.415,1.716,1.716,0,0,0-1.126-.7,1.69,1.69,0,0,0-1.289.29L80.47,91.1h-.006a1.116,1.116,0,0,1-.2.109.377.377,0,0,1-.066.028.777.777,0,0,1-.147.049ZM106.6,71.743V55.9H95.226a16.539,16.539,0,0,1,.787,1.678,10.369,10.369,0,0,1,.825,4.135A27.242,27.242,0,0,1,106.6,71.743Zm-.012,9.9c-.213-9.036-5.676-14.167-10.4-17.33a5.476,5.476,0,0,1-.65.972,7.292,7.292,0,0,1-6.36,2.12c-2.863-.29-8.392-2.093-13.238-10.895A1.259,1.259,0,0,1,78.153,55.3c4.453,8.08,9.375,9.408,11.282,9.6a4.823,4.823,0,0,0,4.191-1.246c.907-1.065.923-2.939.049-5.141a15.67,15.67,0,0,0-1.738-3.141c-.005-.011-.016-.022-.026-.038A22.619,22.619,0,0,0,88.092,51.2c-5.513-4.7-11.37-5.617-13.178-3.5-.039.044-.044.055-.082.093a6.015,6.015,0,0,0-1.055,2.016,1.257,1.257,0,0,1-.8.781c-8.4,2.716-11.888,7.217-11.921,7.261-.284.377-.284.53.044,1.65.065.235.136.481.207.749a1.265,1.265,0,0,1-.672,1.453c-6.595,3.169-10.621,5.4-12.823,7.124a19.516,19.516,0,0,0,4.464,5.912,17.7,17.7,0,0,0,8.911,4.283c1.349-2.945,2.54-5.245,2.66-5.48A4.41,4.41,0,0,1,71.8,77.348l-1.536,3.229,12.878-9.119a4.248,4.248,0,0,1,6.644,2.732,4.252,4.252,0,0,1,5.912,4.6,4.254,4.254,0,0,1-1.732,2.758l-.5.351a4.244,4.244,0,0,1,.312,7.135l-2.52,1.775a4.248,4.248,0,0,1,.285,7.125l-7.277,5.158a31.745,31.745,0,0,1-10,5.032,48.945,48.945,0,0,0,7.152,3.037C89.194,108.55,106.126,100.678,106.59,81.643Zm-49.1,7.8a35.057,35.057,0,0,1,2.638-8.048,18.4,18.4,0,0,1-3.89-1.2v.65A29.115,29.115,0,0,0,57.485,89.439Z" transform="translate(2203.398 4478.917)"/><path class="a" d="M100.877,86.862a1.26,1.26,0,0,1-.486,1.2l-1.578,1.186A1.26,1.26,0,0,1,97.037,87.5l-1.055-.361a1.259,1.259,0,0,1,.814-2.382l3.245,1.109A1.244,1.244,0,0,1,100.877,86.862Z" transform="translate(2171.544 4453.615)"/><path class="a" d="M108.851,53.97a1.672,1.672,0,0,0-1.667-1.672H93.134a26.249,26.249,0,0,0-3.822-4.01C85.428,44.974,80.923,43,77.261,43a6.646,6.646,0,0,0-5.2,2.067,7.562,7.562,0,0,0-1.424,2.313c-8.719,3.014-12.446,7.825-12.6,8.031a3.837,3.837,0,0,0-.61,3.588c-6.879,3.346-10.742,5.6-12.885,7.5a4.7,4.7,0,0,0-1.4,4.957c.71,2.3,3.029,3.992,6.217,4.542a24.392,24.392,0,0,0,3.271,2.445v1.721a31.067,31.067,0,0,0,3.236,14.091.316.316,0,0,0,.042.078l.029.06a1.679,1.679,0,0,0,1.44.818,1.893,1.893,0,0,0,.349-.037,1.682,1.682,0,0,0,1.309-1.448A34.054,34.054,0,0,1,62.219,81.68c1.763-4.042,3.533-7.438,3.531-7.438l.048-.1a1.522,1.522,0,0,1,1.978-.7,1.484,1.484,0,0,1,.7,1.972l-3.584,7.544a1.656,1.656,0,0,0-.006,1.516,1.658,1.658,0,0,0,2.476.591L84.152,73.169a1.366,1.366,0,0,1,1.85.312,1.338,1.338,0,0,1-.317,1.849L74.642,83.137a1.68,1.68,0,0,0-.4,2.332,1.723,1.723,0,0,0,2.329.4l3.571-2.53a.566.566,0,0,0,.1-.059l9.817-6.953a1.271,1.271,0,0,1,.992-.227,1.322,1.322,0,0,1,1.085,1.523,1.336,1.336,0,0,1-.543.858L78.1,88.022a1.678,1.678,0,0,0-.139.12.722.722,0,0,0-.106.095,1.161,1.161,0,0,0-.116.143l-.063.079-.087.17a.637.637,0,0,0-.071.144,1.281,1.281,0,0,0-.066.208,1.155,1.155,0,0,0-.032.139c0,.03-.006.062-.008.094L77.4,89.3a.636.636,0,0,0,0,.138c0,.052.007.107.016.181a.556.556,0,0,0,.021.126,1.517,1.517,0,0,0,.058.187.7.7,0,0,0,.046.133,1.33,1.33,0,0,0,.1.172.553.553,0,0,0,.06.1,1.627,1.627,0,0,0,.205.244l.059.055c.052.042.1.084.161.122l.095.06a1.535,1.535,0,0,0,.2.1l.057.024a1.153,1.153,0,0,0,.268.072l.061.015a1.536,1.536,0,0,0,.271.023l.14-.011c.051-.006.107-.013.162-.024L79.468,91a1.182,1.182,0,0,0,.2-.064.414.414,0,0,0,.08-.034,1.367,1.367,0,0,0,.156-.077l9.972-7.02a1.251,1.251,0,0,1,.984-.219,1.3,1.3,0,0,1,.858.537,1.327,1.327,0,0,1-.311,1.843L81.571,92.9a1.653,1.653,0,0,0-.6.768,1.551,1.551,0,0,0-.1.512l-.007.111a.614.614,0,0,0,.007.084,1.663,1.663,0,0,0,.223.737l.078.124a1.751,1.751,0,0,0,.142.167l.114.114c.061.05.13.1.2.146l.057.034a1.412,1.412,0,0,0,.167.088l.072.069h.1a.856.856,0,0,0,.179.041l.164.029a1.628,1.628,0,0,0,.185.011l.087-.007h.008a1.972,1.972,0,0,0,.2-.028l.082-.018a1.137,1.137,0,0,0,.2-.064l.03-.011.064-.024a1.909,1.909,0,0,0,.268-.152L87.641,92.7a1.333,1.333,0,0,1,.989-.225,1.308,1.308,0,0,1,.86.543,1.286,1.286,0,0,1,.219.984,1.308,1.308,0,0,1-.536.858l-7.278,5.157a29.2,29.2,0,0,1-12.018,5.345,1.677,1.677,0,0,0-1.26,1.327,1.7,1.7,0,0,0,.716,1.692l.057.034a50.717,50.717,0,0,0,10.826,4.971,1.569,1.569,0,0,0,.523.083,1.592,1.592,0,0,0,.52-.08,46.2,46.2,0,0,0,18.523-11.052,30.645,30.645,0,0,0,9.031-20.481,1.711,1.711,0,0,0,.041-.354c0-.087,0-.173-.006-.259s-.005-.148-.005-.213c.006-.292.011-.585.011-.877V53.97Zm-.82,26.191c0,.287-.005.574-.011.869,0,.083,0,.166.006.251s.005.152.005.23a.936.936,0,0,1-.029.212l-.009.069a29.848,29.848,0,0,1-8.8,19.98A45.4,45.4,0,0,1,81,112.621a.878.878,0,0,1-.52,0A50.036,50.036,0,0,1,69.78,107.7a.868.868,0,0,1-.361-.86.855.855,0,0,1,.641-.676,29.918,29.918,0,0,0,12.306-5.474l7.278-5.158a2.122,2.122,0,0,0,.87-1.387,2.091,2.091,0,0,0-.357-1.6,2.116,2.116,0,0,0-1.394-.879,2.185,2.185,0,0,0-.362-.031,2.124,2.124,0,0,0-1.236.394L83.021,94.96a1.078,1.078,0,0,1-.133.078l0,0-.07.024a.383.383,0,0,1-.067.023l.086.4-.157-.386c-.041.009-.081.012-.083.014a.673.673,0,0,0-.087,0l-.064-.006-.093-.015-.056-.011-.1-.038a.806.806,0,0,1-.114-.057c-.047-.033-.1-.071-.132-.1l-.041-.045c-.015-.016-.03-.032-.044-.049l-.034-.046a.818.818,0,0,1-.147-.406v-.093a.793.793,0,0,1,.049-.289.848.848,0,0,1,.308-.392l9.841-6.94a2.149,2.149,0,0,0,.506-2.986,2.151,2.151,0,0,0-2.985-.513L79.66,90.007l-.1.07a1.2,1.2,0,0,1-.14.08l-.061.021a.324.324,0,0,1-.061.022l-.073.016c-.034.007-.069.01-.081.014a.523.523,0,0,0-.077.006,1.078,1.078,0,0,1-.115-.008l-.057-.014-.035-.007-.112-.036a.912.912,0,0,1-.113-.06L78.6,90.1a1.067,1.067,0,0,1-.132-.1.952.952,0,0,1-.094-.106l-.04-.077a.614.614,0,0,1-.054-.089l-.024-.081a.9.9,0,0,1-.03-.087l-.406.054.4-.117a.76.76,0,0,1-.005-.135,1.076,1.076,0,0,0,.007-.112l-.4-.089.423.007a.455.455,0,0,1,.015-.056l.127-.234a.59.59,0,0,1,.057-.072l-.236-.336.289.293,13.562-9.613a2.135,2.135,0,0,0,.511-2.986,2.149,2.149,0,0,0-2.991-.507L76.1,85.2a.887.887,0,0,1-1.189-.2.859.859,0,0,1,.207-1.189L86.156,76a2.156,2.156,0,0,0,.511-2.993,2.15,2.15,0,0,0-2.991-.506l-16.8,11.9a.882.882,0,0,1-.232.124.866.866,0,0,1-1.03-.423.851.851,0,0,1,.009-.783l3.589-7.556a2.3,2.3,0,0,0-2.075-3.287,2.319,2.319,0,0,0-2.084,1.312l-.025.063c-.293.547-2.008,3.933-3.565,7.5A34.7,34.7,0,0,0,58.218,93.63a.852.852,0,0,1-1.57.358c-.011-.021-.024-.045-.04-.073a30.3,30.3,0,0,1-3.163-13.753V77.982l-.2-.119a23.491,23.491,0,0,1-3.437-2.557l-.09-.08-.118-.019c-2.935-.476-5.059-1.969-5.684-3.994a3.9,3.9,0,0,1,1.164-4.1c2.116-1.882,6-4.133,13-7.526l.308-.149-.093-.33a3.222,3.222,0,0,1,.386-3.2c.15-.2,3.777-4.88,12.387-7.81l.177-.06.071-.173a6.951,6.951,0,0,1,1.339-2.24,5.867,5.867,0,0,1,4.6-1.8c3.472,0,7.779,1.906,11.518,5.1A25.311,25.311,0,0,1,92.6,52.956l.123.164h14.458a.851.851,0,0,1,.847.853V80.161Z" transform="translate(2204.077 4479.596)"/><path class="a" d="M75.922,138.477l-.572-.247V139.5a29.569,29.569,0,0,0,1.27,8.72l.482,1.564.312-1.607a34.592,34.592,0,0,1,2.612-7.963l.205-.471-.506-.095A17.894,17.894,0,0,1,75.922,138.477Zm1.044,7.911a29.348,29.348,0,0,1-.8-6.885v-.037a18.74,18.74,0,0,0,2.9.89A36.19,36.19,0,0,0,76.966,146.388Z" transform="translate(2183.872 4420.254)"/><path class="a" d="M101.871,67.483l-.379-.254-.212.4a5.081,5.081,0,0,1-.6.9,6.935,6.935,0,0,1-6.007,1.978c-2.784-.282-8.164-2.044-12.92-10.684a.856.856,0,0,1,.334-1.153.87.87,0,0,1,1.155.335c4.551,8.259,9.629,9.611,11.6,9.809a5.311,5.311,0,0,0,4.545-1.388c1.007-1.184,1.051-3.21.117-5.559a16.042,16.042,0,0,0-1.782-3.225h0l-.026-.039a22.868,22.868,0,0,0-3.888-4.211c-3.431-2.928-7.328-4.676-10.423-4.676a4.222,4.222,0,0,0-3.328,1.22l-.073.083a6.358,6.358,0,0,0-1.142,2.159.843.843,0,0,1-.543.528c-8.535,2.758-12.087,7.358-12.123,7.4-.421.559-.346.9-.023,2.007l.052.187c.05.176.1.36.152.551a.859.859,0,0,1-.452.983c-6.685,3.212-10.663,5.424-12.9,7.171l-.247.193.122.289a19.605,19.605,0,0,0,4.574,6.063,18.37,18.37,0,0,0,9.117,4.378l.3.045L67,82.7c.808-1.763,1.736-3.675,2.613-5.386l.044-.087a4.023,4.023,0,0,1,3.608-2.261,3.961,3.961,0,0,1,1.715.389,4,4,0,0,1,1.893,5.327l-2.21,4.646L88.826,75.3a3.848,3.848,0,0,1,5.356.913,3.9,3.9,0,0,1,.647,1.555l.092.517.479-.215a3.841,3.841,0,0,1,5.339,4.158,3.847,3.847,0,0,1-1.562,2.492l-1.029.716.553.323a3.911,3.911,0,0,1,1.194,1.09,3.85,3.85,0,0,1-.911,5.356L95.947,94.35l.546.322a3.836,3.836,0,0,1,.256,6.437l-7.277,5.158A31.011,31.011,0,0,1,79.6,111.24l-.974.285.9.471a49.506,49.506,0,0,0,7.212,3.063l.131.043.13-.043c7.5-2.517,24.981-10.467,25.455-29.917C112.279,77.917,108.818,72.14,101.871,67.483ZM86.864,114.241a49.071,49.071,0,0,1-6.067-2.512,32.893,32.893,0,0,0,9.15-4.791l7.277-5.158a4.656,4.656,0,0,0,.2-7.464L99.46,92.88a4.671,4.671,0,0,0,1.107-6.5,4.76,4.76,0,0,0-.934-.973l.019-.013a4.663,4.663,0,0,0-4.126-8.243,4.648,4.648,0,0,0-4.484-3.371,4.627,4.627,0,0,0-2.689.856l-11.6,8.211.862-1.811a4.826,4.826,0,0,0-2.281-6.419,4.772,4.772,0,0,0-2.067-.468,4.841,4.841,0,0,0-4.342,2.717l-.039.076c-.836,1.629-1.718,3.441-2.5,5.136a17.4,17.4,0,0,1-8.382-4.122,19.952,19.952,0,0,1-4.246-5.49c2.215-1.663,6.2-3.86,12.5-6.885a1.684,1.684,0,0,0,.889-1.926c-.053-.2-.106-.388-.157-.568l-.053-.19c-.3-1.033-.28-1.062-.111-1.287.034-.044,3.5-4.461,11.72-7.119a1.677,1.677,0,0,0,1.066-1.036,5.675,5.675,0,0,1,.957-1.861,1.541,1.541,0,0,0,.1-.116,3.5,3.5,0,0,1,2.709-.937c2.243,0,6.021,1.177,9.891,4.48a22.175,22.175,0,0,1,3.757,4.068l.02.029a15.252,15.252,0,0,1,1.692,3.057c.817,2.057.824,3.779.02,4.724a4.123,4.123,0,0,1-3.124,1.142A7.009,7.009,0,0,1,94.926,68c-1.843-.185-6.6-1.471-10.964-9.389a1.669,1.669,0,1,0-2.925,1.608c4.938,8.968,10.613,10.806,13.556,11.1a10.245,10.245,0,0,0,1.037.054,7.361,7.361,0,0,0,5.678-2.318,5.834,5.834,0,0,0,.471-.649c6.468,4.453,9.691,9.937,9.852,16.732C111.171,103.946,94.265,111.732,86.864,114.241Z" transform="translate(2197.949 4475.407)"/><path class="a" d="M178.4,74.966a16.261,16.261,0,0,1,.767,1.635,9.927,9.927,0,0,1,.8,3.971l-.007.233.2.125a27,27,0,0,1,9.62,9.871l.771,1.462v-17.9H178.071Zm11.326.215V89.073a28.313,28.313,0,0,0-8.94-8.712,10.943,10.943,0,0,0-.858-4.066c-.151-.375-.317-.748-.5-1.115Z" transform="translate(2119.865 4460.051)"/><path class="a" d="M99.5,84.8,96.25,83.694a1.665,1.665,0,0,0-2.116,1.037,1.673,1.673,0,0,0,1.037,2.12l.614.21A1.67,1.67,0,0,0,98.38,88.9l1.578-1.185a1.664,1.664,0,0,0,.645-1.592A1.644,1.644,0,0,0,99.5,84.8Zm-.028,2.256-1.577,1.183a.867.867,0,0,1-1.194-.174.845.845,0,0,1-.008-1l.331-.45-1.583-.541a.849.849,0,0,1,.275-1.652.863.863,0,0,1,.274.046l3.249,1.11a.832.832,0,0,1,.56.668A.849.849,0,0,1,99.468,87.059Z" transform="translate(2172.222 4454.292)"/></g></svg>