<svg xmlns="http://www.w3.org/2000/svg" viewBox="1348.805 236.303 19.707 16.588">
  <defs>
    <style>
      .cls-1 {
        fill: none;
        stroke: #666;
        stroke-linecap: round;
        stroke-linejoin: round;
        stroke-width: 2px;
        opacity: 0.5;
      }
    </style>
  </defs>
  <g id="Symbol_6_1" data-name="Symbol 6 – 1" transform="translate(-9)">
    <path id="Path_7" data-name="Path 7" class="cls-1" d="M18.707.988a7.941,7.941,0,0,1-2.5,1.208,3.509,3.509,0,0,0-5.071-.322A3.426,3.426,0,0,0,9.854,4.612v.805A8.6,8.6,0,0,1,2.61,1.794S-.61,9.04,6.634,12.261A9.393,9.393,0,0,1,1,13.872c7.244,4.026,16.1,0,16.1-9.26a1.57,1.57,0,0,0-.08-.644A6.148,6.148,0,0,0,18.707.988Z" transform="translate(1357.805 236.364)"/>
  </g>
</svg>
